<svg width="29" height="29" viewBox="0 0 29 29" fill="none" xmlns="http://www.w3.org/2000/svg">
<path fill-rule="evenodd" clip-rule="evenodd" d="M0 14.5C0 6.49188 6.49188 0 14.5 0C22.5082 0 29 6.49188 29 14.5V16.675C29 19.4778 26.7278 21.75 23.925 21.75C22.1789 21.75 20.6387 20.8681 19.7256 19.5255C18.4065 20.8967 16.5529 21.75 14.5 21.75C10.4959 21.75 7.25 18.504 7.25 14.5C7.25 10.4959 10.4959 7.25 14.5 7.25C18.504 7.25 21.75 10.4959 21.75 14.5V16.675C21.75 17.8762 22.7238 18.85 23.925 18.85C25.1262 18.85 26.1 17.8762 26.1 16.675V14.5C26.1 8.0935 20.9066 2.9 14.5 2.9C8.0935 2.9 2.9 8.0935 2.9 14.5C2.9 20.9066 8.0935 26.1 14.5 26.1H20.3C21.1008 26.1 21.75 26.7492 21.75 27.55C21.75 28.3508 21.1008 29 20.3 29H14.5C6.49188 29 0 22.5082 0 14.5ZM18.85 14.5C18.85 12.0976 16.9024 10.15 14.5 10.15C12.0976 10.15 10.15 12.0976 10.15 14.5C10.15 16.9024 12.0976 18.85 14.5 18.85C16.9024 18.85 18.85 16.9024 18.85 14.5Z" fill="#2C2C2C"/>
</svg>
