<svg width="31" height="31" viewBox="0 0 31 31" fill="none" xmlns="http://www.w3.org/2000/svg">
<path fill-rule="evenodd" clip-rule="evenodd" d="M9.09797 0.19023C6.57475 0.304077 4.38776 0.92097 2.62182 2.67945C0.849702 4.44718 0.240469 6.64282 0.126338 9.13978C0.0553914 10.6983 -0.359467 22.4723 0.843535 25.56C1.65479 27.6431 3.25258 29.2448 5.35475 30.0587C6.33566 30.4402 7.45541 30.6985 9.09797 30.7739C22.8322 31.3954 27.9234 31.057 30.0703 25.56C30.4512 24.5816 30.7134 23.4628 30.7859 21.8243C31.4136 8.05487 30.6841 5.07026 28.2905 2.67945C26.3919 0.785578 24.1586 -0.503625 9.09797 0.19023ZM9.22441 28.0046C7.72065 27.9369 6.90478 27.6863 6.36035 27.4756C4.99078 26.9433 3.96206 25.9188 3.43305 24.5572C2.51692 22.211 2.82077 11.0678 2.90251 9.26466C2.98271 7.49847 3.34052 5.8843 4.5867 4.63814C6.12901 3.09965 8.12166 2.34564 21.6894 2.95797C23.4599 3.03796 25.0778 3.39504 26.3271 4.63814C27.8694 6.17662 28.6344 8.18459 28.0113 21.7002C27.9434 23.2002 27.6921 24.0141 27.4808 24.5572C26.085 28.1342 22.8738 28.6308 9.22441 28.0046ZM21.839 7.26889C21.839 8.28738 22.6672 9.11556 23.6898 9.11556C24.7123 9.11556 25.5421 8.28738 25.5421 7.26889C25.5421 6.25042 24.7123 5.42298 23.6898 5.42298C22.6672 5.42298 21.839 6.25042 21.839 7.26889ZM7.53714 15.4813C7.53714 19.8444 11.0829 23.3819 15.4569 23.3819C19.8309 23.3819 23.3767 19.8444 23.3767 15.4813C23.3767 11.1181 19.8309 7.58298 15.4569 7.58298C11.0829 7.58298 7.53714 11.1181 7.53714 15.4813ZM10.3164 15.4813C10.3164 12.6505 12.6175 10.3537 15.4569 10.3537C18.2963 10.3537 20.5974 12.6505 20.5974 15.4813C20.5974 18.3136 18.2963 20.6111 15.4569 20.6111C12.6175 20.6111 10.3164 18.3136 10.3164 15.4813Z" fill="#2C2C2C"/>
</svg>
