<svg width="16" height="16" viewBox="0 0 16 16" xmlns="http://www.w3.org/2000/svg">
    <path d="M5.7877 15C4.84261 15 4.05839 14.732 3.43503 14.1958C2.81168 13.6397 2.5 12.8752 2.5 11.9022C2.5 10.9291 2.86195 10.0852 3.58585 9.37026C4.32986 8.65537 5.56652 8.09929 7.29583 7.70212L10.1613 7.0468V4.87238C10.1613 4.19717 9.87975 3.6213 9.31671 3.14468C8.77379 2.64826 8.15044 2.40004 7.44664 2.40004C6.68253 2.40004 6.14966 2.60849 5.84803 3.02554C5.54641 3.42271 5.3956 3.9589 5.3956 4.63403V5.46814L5.24479 5.61701H3.67634C3.37471 5.61701 3.16357 5.56739 3.04292 5.46814C2.94238 5.3688 2.89211 5.14047 2.89211 4.78299C2.89211 4.34613 3.02282 3.89934 3.28422 3.4426C3.54563 2.98586 3.9478 2.58869 4.49072 2.25108C5.05375 1.8936 5.63689 1.59576 6.24015 1.35749C6.8635 1.11914 7.52708 1 8.23087 1C8.93466 1 9.61834 1.09925 10.2819 1.29784C10.9656 1.49642 11.5185 1.83403 11.9408 2.31065C12.3631 2.76739 12.5743 3.41277 12.5743 4.2468V12.7064C12.715 12.8454 12.9161 12.9646 13.1775 13.0639C13.4389 13.1632 13.8009 13.2128 14.2634 13.2128H15.4096L15.5 13.2724V13.3618C15.2587 13.7986 14.8967 14.1859 14.4142 14.5235C13.9517 14.8412 13.3786 15 12.6949 15C12.0715 15 11.5588 14.8412 11.1566 14.5235C10.7746 14.1859 10.5031 13.749 10.3422 13.2128H10.1613C9.63845 13.7291 8.98492 14.156 8.2007 14.4936C7.43659 14.8312 6.63226 15 5.7877 15ZM4.85267 11.3064C4.85267 12.5376 5.60674 13.1532 7.11485 13.1532C7.59745 13.1532 8.07 13.1036 8.53249 13.0043C9.01509 12.905 9.55802 12.7262 10.1613 12.4681V8.05961C8.5526 8.35745 7.37626 8.67517 6.63226 9.01277C5.88825 9.33049 5.40565 9.67804 5.18446 10.0553C4.96327 10.4326 4.85267 10.8497 4.85267 11.3064Z"/>
</svg>
