<svg width="286" height="132" viewBox="0 0 286 132" fill="none" xmlns="http://www.w3.org/2000/svg">
<g clip-path="url(#clip0_114_110)">
<path d="M118.9 77.9368C113.656 77.9368 108.737 76.968 104.141 75.0307C99.6091 73.0285 95.6282 70.2834 92.1975 66.7958C88.8315 63.2434 86.1774 59.1099 84.2353 54.3951C82.3584 49.6798 81.4194 44.5775 81.4194 39.0878C81.4194 33.6624 82.3584 28.6246 84.2353 23.9744C86.1774 19.2595 88.8315 15.1582 92.1975 11.6705C95.6282 8.1182 99.6091 5.34095 104.141 3.33875C108.672 1.33655 113.591 0.335449 118.9 0.335449C123.884 0.335449 128.156 0.981319 131.716 2.27306C135.342 3.5648 138.967 5.6962 142.591 8.66718C143.109 9.05472 143.498 9.47451 143.757 9.92665C144.08 10.3141 144.274 10.734 144.339 11.1861C144.469 11.5736 144.533 12.058 144.533 12.6393C144.533 13.8664 144.08 14.8998 143.174 15.7395C142.333 16.5791 141.265 17.0312 139.97 17.0958C138.74 17.1604 137.575 16.7406 136.474 15.8364C134.079 13.7696 131.587 12.1872 128.998 11.0892C126.473 9.99124 123.107 9.44222 118.9 9.44222C115.08 9.44222 111.488 10.2173 108.121 11.7674C104.755 13.3175 101.778 15.4489 99.1887 18.1615C96.6639 20.8741 94.6898 24.0389 93.2657 27.6558C91.8413 31.2081 91.1293 35.0187 91.1293 39.0878C91.1293 43.2212 91.8413 47.0967 93.2657 50.7136C94.6898 54.2657 96.6639 57.3982 99.1887 60.1108C101.778 62.8235 104.755 64.9551 108.121 66.5049C111.488 67.9907 115.08 68.7331 118.9 68.7331C122.201 68.7331 125.308 68.1842 128.221 67.0863C131.198 65.9235 134.047 64.3412 136.766 62.339C137.931 61.4996 139.063 61.1442 140.164 61.2736C141.329 61.3381 142.3 61.7901 143.077 62.6299C143.854 63.4048 144.242 64.5027 144.242 65.9235C144.242 66.5694 144.113 67.2153 143.854 67.8612C143.66 68.4426 143.271 68.9916 142.689 69.5085C139.258 72.3501 135.536 74.4813 131.522 75.9026C127.509 77.2589 123.301 77.9368 118.9 77.9368ZM144.242 65.9235L134.532 63.9862V46.6443H121.133C119.709 46.6443 118.511 46.2248 117.54 45.3849C116.569 44.5455 116.084 43.4797 116.084 42.1879C116.084 40.8962 116.569 39.8305 117.54 38.9909C118.511 38.1512 119.709 37.7314 121.133 37.7314H139.29C140.779 37.7314 141.977 38.2158 142.883 39.1846C143.789 40.0889 144.242 41.2837 144.242 42.7693V65.9235Z" fill="#393939"/>
<path d="M180.978 76.968C179.554 76.968 178.357 76.4836 177.386 75.5152C176.415 74.5463 175.929 73.3515 175.929 71.9302V6.34212C175.929 4.85663 176.415 3.66175 177.386 2.75753C178.357 1.78872 179.554 1.30432 180.978 1.30432C182.467 1.30432 183.664 1.78872 184.571 2.75753C185.542 3.66175 186.027 4.85663 186.027 6.34212V71.9302C186.027 73.3515 185.542 74.5463 184.571 75.5152C183.664 76.4836 182.467 76.968 180.978 76.968Z" fill="#393939"/>
<path d="M226.004 76.968C224.58 76.968 223.382 76.4836 222.411 75.5152C221.44 74.5463 220.955 73.3515 220.955 71.9302V6.34212C220.955 4.85663 221.44 3.66175 222.411 2.75753C223.382 1.78872 224.58 1.30432 226.004 1.30432H243.579C249.146 1.30432 254.195 2.24083 258.726 4.11386C263.322 5.92228 267.303 8.53806 270.669 11.9612C274.035 15.3197 276.624 19.2918 278.437 23.8775C280.25 28.4632 281.156 33.5333 281.156 39.0878C281.156 44.6421 280.25 49.7448 278.437 54.3952C276.624 58.9806 274.035 62.985 270.669 66.408C267.303 69.7665 263.322 72.3826 258.726 74.2554C254.195 76.0641 249.146 76.968 243.579 76.968H226.004ZM231.053 68.0552H243.579C249.016 68.0552 253.806 66.8279 257.949 64.3738C262.157 61.8547 265.458 58.4316 267.853 54.1043C270.249 49.7124 271.446 44.707 271.446 39.0878C271.446 33.4041 270.249 28.3986 267.853 24.0713C265.458 19.744 262.157 16.3531 257.949 13.8988C253.806 11.4445 249.016 10.2174 243.579 10.2174H231.053V68.0552Z" fill="#393939"/>
<path d="M10.8138 131.907C9.33127 131.907 7.94023 131.633 6.64073 131.085C5.35951 130.519 4.23385 129.743 3.26379 128.757C2.31202 127.752 1.56159 126.583 1.0125 125.25C0.481706 123.917 0.216309 122.475 0.216309 120.922C0.216309 119.388 0.481706 117.964 1.0125 116.649C1.56159 115.316 2.31202 114.156 3.26379 113.17C4.23385 112.165 5.35951 111.38 6.64073 110.814C7.92195 110.248 9.31299 109.965 10.8138 109.965C12.2232 109.965 13.4312 110.147 14.4379 110.513C15.4628 110.878 16.4878 111.481 17.5128 112.321C17.6592 112.43 17.769 112.549 17.8423 112.677C17.9338 112.787 17.9887 112.905 18.007 113.033C18.0436 113.142 18.0619 113.279 18.0619 113.444C18.0619 113.791 17.9338 114.083 17.6775 114.321C17.4396 114.54 17.1467 114.667 16.799 114.704C16.4512 114.722 16.1126 114.603 15.7831 114.348C15.1059 113.763 14.4013 113.316 13.6691 113.006C12.9553 112.695 12.0036 112.54 10.8138 112.54C9.73394 112.54 8.71812 112.759 7.76636 113.197C6.8146 113.636 5.97265 114.238 5.24053 115.005C4.52673 115.772 3.96846 116.667 3.56579 117.69C3.16312 118.694 2.96178 119.772 2.96178 120.922C2.96178 122.091 3.16312 123.187 3.56579 124.209C3.96846 125.214 4.52673 126.1 5.24053 126.867C5.97265 127.634 6.8146 128.236 7.76636 128.674C8.71812 129.095 9.73394 129.304 10.8138 129.304C11.7473 129.304 12.6259 129.149 13.4495 128.839C14.2914 128.51 15.0968 128.063 15.8655 127.497C16.195 127.259 16.5153 127.159 16.8264 127.195C17.1559 127.213 17.4305 127.342 17.6501 127.579C17.8697 127.798 17.9796 128.108 17.9796 128.51C17.9796 128.693 17.943 128.876 17.8697 129.058C17.7965 129.222 17.6867 129.378 17.5403 129.524C16.5519 130.309 15.4903 130.903 14.3555 131.304C13.239 131.706 12.0585 131.907 10.8138 131.907Z" fill="#393939"/>
<path d="M46.2667 131.907C44.656 131.907 43.1827 131.642 41.8465 131.112C40.5104 130.565 39.3573 129.807 38.3872 128.839C37.4354 127.853 36.6942 126.693 36.1634 125.36C35.6326 124.009 35.3672 122.529 35.3672 120.922C35.3672 119.315 35.6326 117.845 36.1634 116.512C36.6942 115.179 37.4354 114.028 38.3872 113.06C39.3573 112.074 40.5104 111.316 41.8465 110.787C43.1827 110.239 44.656 109.965 46.2667 109.965C47.8773 109.965 49.3416 110.239 50.6594 110.787C51.9956 111.316 53.1486 112.074 54.1188 113.06C55.089 114.028 55.8391 115.179 56.37 116.512C56.9009 117.845 57.1663 119.315 57.1663 120.922C57.1663 122.529 56.9009 124.009 56.37 125.36C55.8391 126.693 55.089 127.853 54.1188 128.839C53.1486 129.807 51.9956 130.565 50.6594 131.112C49.3416 131.642 47.8773 131.907 46.2667 131.907ZM46.2667 129.332C47.4565 129.332 48.5457 129.122 49.5338 128.702C50.5404 128.263 51.4099 127.67 52.1421 126.921C52.8742 126.154 53.4325 125.259 53.817 124.237C54.2194 123.214 54.4207 122.109 54.4207 120.922C54.4207 119.735 54.2194 118.63 53.817 117.608C53.4325 116.585 52.8742 115.699 52.1421 114.951C51.4099 114.183 50.5404 113.59 49.5338 113.17C48.5457 112.75 47.4565 112.54 46.2667 112.54C45.0768 112.54 43.9787 112.75 42.9721 113.17C41.9838 113.59 41.1235 114.183 40.3914 114.951C39.6776 115.699 39.1194 116.585 38.7166 117.608C38.314 118.63 38.1127 119.735 38.1127 120.922C38.1127 122.109 38.314 123.214 38.7166 124.237C39.1194 125.259 39.6776 126.154 40.3914 126.921C41.1235 127.67 41.9838 128.263 42.9721 128.702C43.9787 129.122 45.0768 129.332 46.2667 129.332Z" fill="#393939"/>
<path d="M82.2562 131.907C81.0848 131.907 79.9682 131.724 78.9064 131.359C77.845 130.994 76.9207 130.483 76.1337 129.825C75.3468 129.168 74.7701 128.41 74.404 127.551C74.2208 127.168 74.2208 126.812 74.404 126.483C74.6053 126.154 74.9349 125.944 75.3922 125.853C75.7219 125.78 76.0421 125.835 76.3534 126.017C76.6826 126.182 76.9297 126.437 77.0945 126.785C77.3141 127.241 77.6712 127.661 78.1653 128.044C78.6778 128.428 79.2909 128.738 80.0046 128.976C80.7187 129.213 81.4688 129.332 82.2562 129.332C83.1347 129.332 83.9401 129.195 84.6722 128.921C85.4223 128.647 86.0264 128.254 86.4841 127.743C86.9418 127.213 87.1704 126.565 87.1704 125.798C87.1704 124.83 86.786 123.963 86.0174 123.196C85.2669 122.429 84.0223 121.954 82.2836 121.771C80.014 121.552 78.2295 120.886 76.9297 119.772C75.6302 118.658 74.9807 117.279 74.9807 115.635C74.9807 114.43 75.319 113.407 75.9963 112.567C76.6736 111.727 77.5886 111.088 78.742 110.65C79.9134 110.211 81.2128 109.992 82.6402 109.992C83.7568 109.992 84.727 110.147 85.5508 110.458C86.3925 110.769 87.1246 111.197 87.7471 111.745C88.3692 112.293 88.9091 112.942 89.3668 113.69C89.6233 114.092 89.7239 114.476 89.6686 114.841C89.6323 115.188 89.4584 115.462 89.1472 115.663C88.7995 115.882 88.424 115.928 88.0216 115.799C87.6187 115.672 87.3169 115.434 87.1156 115.087C86.8228 114.558 86.4657 114.11 86.0448 113.745C85.624 113.38 85.1295 113.097 84.5622 112.896C83.9949 112.677 83.327 112.567 82.558 112.567C81.2038 112.549 80.0688 112.804 79.1539 113.334C78.2385 113.846 77.7808 114.64 77.7808 115.717C77.7808 116.266 77.9182 116.795 78.1927 117.306C78.4855 117.8 79.0074 118.228 79.7575 118.594C80.5265 118.959 81.6247 119.215 83.0521 119.361C85.2305 119.58 86.9234 120.246 88.1312 121.361C89.3578 122.456 89.9709 123.908 89.9709 125.716C89.9709 126.757 89.7513 127.661 89.312 128.428C88.8911 129.195 88.3144 129.843 87.5823 130.373C86.8686 130.884 86.0448 131.268 85.1115 131.523C84.1961 131.779 83.2443 131.907 82.2562 131.907Z" fill="#393939"/>
<path d="M109.586 131.633C109.183 131.633 108.845 131.496 108.57 131.222C108.296 130.948 108.158 130.61 108.158 130.208V111.663C108.158 111.243 108.296 110.905 108.57 110.65C108.845 110.376 109.183 110.239 109.586 110.239C110.135 110.239 110.556 110.495 110.849 111.006L119.442 128.181H118.564L126.937 111.006C127.23 110.495 127.651 110.239 128.2 110.239C128.603 110.239 128.942 110.376 129.216 110.65C129.49 110.905 129.628 111.243 129.628 111.663V130.208C129.628 130.61 129.481 130.948 129.189 131.222C128.914 131.496 128.585 131.633 128.2 131.633C127.798 131.633 127.459 131.496 127.184 131.222C126.91 130.948 126.773 130.61 126.773 130.208V115.608L127.322 115.471L120.129 130.099C119.817 130.574 119.406 130.811 118.893 130.811C118.289 130.811 117.85 130.528 117.575 129.962L110.465 115.745L111.013 115.608V130.208C111.013 130.61 110.876 130.948 110.602 131.222C110.327 131.496 109.989 131.633 109.586 131.633Z" fill="#393939"/>
<path d="M150.367 131.633C149.964 131.633 149.626 131.496 149.351 131.222C149.077 130.948 148.939 130.61 148.939 130.208V111.663C148.939 111.243 149.077 110.905 149.351 110.65C149.626 110.376 149.964 110.239 150.367 110.239H162.777C163.197 110.239 163.536 110.367 163.793 110.622C164.049 110.86 164.177 111.179 164.177 111.581C164.177 111.965 164.049 112.275 163.793 112.512C163.536 112.75 163.197 112.869 162.777 112.869H151.795V119.525H159.674C160.095 119.525 160.434 119.653 160.69 119.909C160.946 120.146 161.074 120.457 161.074 120.84C161.074 121.223 160.946 121.543 160.69 121.799C160.434 122.036 160.095 122.155 159.674 122.155H151.795V129.003H162.777C163.197 129.003 163.536 129.122 163.793 129.359C164.049 129.597 164.177 129.907 164.177 130.291C164.177 130.692 164.049 131.021 163.793 131.277C163.536 131.514 163.197 131.633 162.777 131.633H150.367Z" fill="#393939"/>
<path d="M188.314 131.633C187.911 131.633 187.573 131.496 187.298 131.222C187.024 130.948 186.886 130.61 186.886 130.208V110.239H189.742V130.208C189.742 130.61 189.605 130.948 189.33 131.222C189.055 131.496 188.717 131.633 188.314 131.633ZM180.956 112.869C180.572 112.869 180.252 112.75 179.995 112.512C179.757 112.257 179.638 111.937 179.638 111.554C179.638 111.17 179.757 110.86 179.995 110.622C180.252 110.367 180.572 110.239 180.956 110.239H195.644C196.029 110.239 196.34 110.367 196.578 110.622C196.834 110.86 196.962 111.17 196.962 111.554C196.962 111.937 196.834 112.257 196.578 112.512C196.34 112.75 196.029 112.869 195.644 112.869H180.956Z" fill="#393939"/>
<path d="M215.359 131.633C214.957 131.633 214.618 131.496 214.344 131.222C214.069 130.948 213.932 130.61 213.932 130.208V111.663C213.932 111.243 214.069 110.905 214.344 110.65C214.618 110.376 214.957 110.239 215.359 110.239C215.78 110.239 216.119 110.376 216.375 110.65C216.65 110.905 216.787 111.243 216.787 111.663V130.208C216.787 130.61 216.65 130.948 216.375 131.222C216.119 131.496 215.78 131.633 215.359 131.633Z" fill="#393939"/>
<path d="M245.688 131.907C244.206 131.907 242.815 131.633 241.515 131.085C240.234 130.519 239.109 129.743 238.138 128.757C237.187 127.752 236.436 126.583 235.887 125.25C235.356 123.917 235.091 122.475 235.091 120.922C235.091 119.388 235.356 117.964 235.887 116.649C236.436 115.316 237.187 114.156 238.138 113.17C239.109 112.165 240.234 111.38 241.515 110.814C242.797 110.248 244.188 109.965 245.688 109.965C247.098 109.965 248.306 110.147 249.312 110.513C250.337 110.878 251.362 111.481 252.387 112.321C252.534 112.43 252.643 112.549 252.717 112.677C252.808 112.787 252.863 112.905 252.881 113.033C252.918 113.142 252.936 113.279 252.936 113.444C252.936 113.791 252.808 114.083 252.552 114.321C252.314 114.54 252.021 114.667 251.674 114.704C251.326 114.722 250.987 114.603 250.658 114.348C249.98 113.763 249.276 113.316 248.544 113.006C247.83 112.695 246.878 112.54 245.688 112.54C244.608 112.54 243.592 112.759 242.641 113.197C241.689 113.636 240.847 114.238 240.115 115.005C239.401 115.772 238.843 116.667 238.44 117.69C238.038 118.694 237.836 119.772 237.836 120.922C237.836 122.091 238.038 123.187 238.44 124.209C238.843 125.214 239.401 126.1 240.115 126.867C240.847 127.634 241.689 128.236 242.641 128.674C243.592 129.095 244.608 129.304 245.688 129.304C246.622 129.304 247.501 129.149 248.324 128.839C249.166 128.51 249.971 128.063 250.74 127.497C251.07 127.259 251.39 127.159 251.701 127.195C252.03 127.213 252.305 127.342 252.524 127.579C252.744 127.798 252.854 128.108 252.854 128.51C252.854 128.693 252.818 128.876 252.744 129.058C252.671 129.222 252.561 129.378 252.415 129.524C251.427 130.309 250.365 130.903 249.23 131.304C248.114 131.706 246.933 131.907 245.688 131.907Z" fill="#393939"/>
<path d="M278.039 131.907C276.867 131.907 275.751 131.724 274.689 131.359C273.627 130.994 272.703 130.483 271.916 129.825C271.129 129.168 270.552 128.41 270.186 127.551C270.004 127.168 270.004 126.812 270.186 126.483C270.388 126.154 270.717 125.944 271.175 125.853C271.504 125.78 271.824 125.835 272.136 126.017C272.465 126.182 272.712 126.437 272.877 126.785C273.097 127.241 273.454 127.661 273.948 128.044C274.46 128.428 275.073 128.738 275.787 128.976C276.501 129.213 277.252 129.332 278.039 129.332C278.917 129.332 279.722 129.195 280.455 128.921C281.205 128.647 281.809 128.254 282.267 127.743C282.724 127.213 282.953 126.565 282.953 125.798C282.953 124.83 282.569 123.963 281.8 123.196C281.049 122.429 279.805 121.954 278.066 121.771C275.796 121.552 274.012 120.886 272.712 119.772C271.413 118.658 270.763 117.279 270.763 115.635C270.763 114.43 271.102 113.407 271.779 112.567C272.456 111.727 273.371 111.088 274.524 110.65C275.696 110.211 276.995 109.992 278.423 109.992C279.539 109.992 280.509 110.147 281.333 110.458C282.175 110.769 282.907 111.197 283.53 111.745C284.152 112.293 284.692 112.942 285.149 113.69C285.406 114.092 285.506 114.476 285.451 114.841C285.415 115.188 285.241 115.462 284.93 115.663C284.582 115.882 284.207 115.928 283.804 115.799C283.402 115.672 283.099 115.434 282.898 115.087C282.605 114.558 282.248 114.11 281.827 113.745C281.406 113.38 280.912 113.097 280.345 112.896C279.777 112.677 279.109 112.567 278.34 112.567C276.986 112.549 275.851 112.804 274.936 113.334C274.021 113.846 273.563 114.64 273.563 115.717C273.563 116.266 273.701 116.795 273.975 117.306C274.268 117.8 274.79 118.228 275.54 118.594C276.309 118.959 277.407 119.215 278.834 119.361C281.013 119.58 282.706 120.246 283.914 121.361C285.14 122.456 285.753 123.908 285.753 125.716C285.753 126.757 285.534 127.661 285.094 128.428C284.674 129.195 284.097 129.843 283.365 130.373C282.651 130.884 281.827 131.268 280.894 131.523C279.978 131.779 279.027 131.907 278.039 131.907Z" fill="#393939"/>
<path d="M5.06769 10.1256C-0.881939 16.0619 -0.881939 25.6866 5.06769 31.6229L6.97991 33.5308C6.41763 34.4964 5.91927 35.5005 5.48907 36.5367C4.22442 39.583 3.5735 42.8479 3.5735 46.1454C3.5735 49.4428 4.22442 52.7078 5.48907 55.754C6.75376 58.8003 8.60741 61.5684 10.9442 63.9C13.281 66.2316 16.0552 68.0813 19.1084 69.3428C22.1616 70.6047 25.434 71.2544 28.7387 71.2544C32.0435 71.2544 35.3158 70.6047 38.3691 69.3428C39.4076 68.9139 40.4139 68.4166 41.3816 67.8553L46.2656 72.7282C52.2151 78.6648 61.8616 78.6648 67.8111 72.7282L58.1522 63.0914C57.769 63.3284 57.3794 63.5549 56.9838 63.771C56.1883 64.2059 55.3684 64.598 54.5275 64.9453C51.4744 66.2072 48.2017 66.8566 44.8973 66.8566C41.5924 66.8566 38.32 66.2072 35.2668 64.9453C32.2136 63.6834 29.4394 61.8342 27.1026 59.5026C24.7658 57.171 22.9122 54.4029 21.6475 51.3566C20.3828 48.3104 19.7319 45.0454 19.7319 41.7479C19.7319 38.4506 20.3828 35.1855 21.6475 32.1392C21.9959 31.3001 22.3889 30.4821 22.8244 29.6885C23.0411 29.2936 23.2683 28.9048 23.5058 28.5224L5.06769 10.1256Z" fill="#393939"/>
<path d="M28.1168 34.9688C27.243 37.1221 26.7935 39.4239 26.7935 41.7479C26.7935 44.1201 27.2618 46.4687 28.1716 48.6606C29.0814 50.8521 30.4149 52.8432 32.096 54.5207C33.7771 56.1979 35.7728 57.5285 37.9693 58.4363C40.1658 59.3441 42.5199 59.8114 44.8975 59.8114C47.2266 59.8114 49.5335 59.3629 51.6917 58.491L28.1168 34.9688Z" fill="#393939"/>
<path d="M24.2953 77.1123H33.9174C35.0983 77.1123 36.0557 78.0675 36.0557 79.2458C36.0557 80.424 35.0983 81.3792 33.9174 81.3792H24.2953C23.1144 81.3792 22.1571 80.424 22.1571 79.2458C22.1571 78.0675 23.1144 77.1123 24.2953 77.1123Z" fill="#393939"/>
</g>
<defs>
<clipPath id="clip0_114_110">
<rect width="286" height="132" fill="white"/>
</clipPath>
</defs>
</svg>
