<svg width="16" height="16" viewBox="0 0 16 16" xmlns="http://www.w3.org/2000/svg">
<path fill-rule="evenodd" clip-rule="evenodd" d="M6.77021 12.76C6.11761 12.76 5.57609 12.5732 5.14565 12.1994C4.71522 11.8117 4.5 11.2787 4.5 10.6004C4.5 9.92203 4.74993 9.33366 5.2498 8.83528C5.76354 8.33689 6.61747 7.94923 7.81159 7.67235L9.79021 7.21549V5.69961C9.79021 5.22889 9.59582 4.82742 9.20704 4.49515C8.83214 4.14907 8.40171 3.97603 7.91573 3.97603C7.38809 3.97603 7.02014 4.12135 6.81186 4.41209C6.60359 4.68898 6.49945 5.06278 6.49945 5.53344V6.11493L6.39531 6.21872H5.31228C5.104 6.21872 4.95821 6.18413 4.8749 6.11493C4.80547 6.04568 4.77076 5.88651 4.77076 5.63729C4.77076 5.33274 4.86101 5.02126 5.04152 4.70284C5.22203 4.38443 5.49973 4.10754 5.87462 3.87218C6.2634 3.62296 6.66607 3.41533 7.08262 3.24922C7.51306 3.08306 7.97127 3 8.45725 3C8.94322 3 9.41531 3.06919 9.87352 3.20764C10.3456 3.34608 10.7274 3.58144 11.019 3.91371C11.3106 4.23212 11.4564 4.68205 11.4564 5.26349V11.1611C11.5536 11.2579 11.6924 11.341 11.8729 11.4102C12.0535 11.4795 12.3034 11.5141 12.6228 11.5141H13.4142L13.4767 11.5556V11.6179C13.3101 11.9225 13.0601 12.1924 12.7269 12.4278C12.4076 12.6493 12.0118 12.76 11.5397 12.76C11.1093 12.76 10.7552 12.6493 10.4775 12.4278C10.2137 12.1924 10.0263 11.8879 9.91518 11.5141H9.79021C9.4292 11.874 8.97793 12.1716 8.43642 12.407C7.90879 12.6424 7.35338 12.76 6.77021 12.76ZM6.12455 10.185C6.12455 11.0434 6.64524 11.4726 7.68662 11.4726C8.01986 11.4726 8.34616 11.438 8.66552 11.3687C8.99876 11.2995 9.37366 11.1749 9.79021 10.9949V7.92156C8.67941 8.1292 7.86713 8.3507 7.35338 8.58606C6.83963 8.80755 6.50639 9.04984 6.35366 9.31287C6.20092 9.57589 6.12455 9.86664 6.12455 10.185Z"/>
</svg>
