<svg width="16" height="16" viewBox="0 0 16 16" xmlns="http://www.w3.org/2000/svg">
<path d="M2.79676 1.625C1.73441 2.68496 1.73441 4.40351 2.79676 5.46347L3.1382 5.80416C3.0378 5.97656 2.94881 6.15584 2.872 6.34087C2.64619 6.88481 2.52996 7.46779 2.52996 8.05656C2.52996 8.64534 2.64619 9.22832 2.872 9.77225C3.09782 10.3162 3.4288 10.8105 3.84605 11.2268C4.2633 11.6431 4.75866 11.9734 5.30382 12.1986C5.84899 12.4239 6.43329 12.5399 7.02338 12.5399C7.61346 12.5399 8.19776 12.4239 8.74293 12.1986C8.92837 12.122 9.10805 12.0332 9.28085 11.933L10.1529 12.8031C11.2152 13.8631 12.9377 13.8631 14 12.8031L12.2753 11.0824C12.2069 11.1247 12.1373 11.1651 12.0667 11.2037C11.9247 11.2814 11.7783 11.3514 11.6281 11.4134C11.083 11.6387 10.4986 11.7547 9.90859 11.7547C9.31848 11.7547 8.73417 11.6387 8.18901 11.4134C7.64384 11.1881 7.14849 10.8579 6.73124 10.4416C6.31399 10.0253 5.98301 9.53099 5.75719 8.98706C5.53137 8.44313 5.41515 7.86015 5.41515 7.27137C5.41515 6.68261 5.53137 6.09961 5.75719 5.55567C5.81939 5.40584 5.88957 5.25978 5.96733 5.11808C6.00603 5.04758 6.0466 4.97815 6.08901 4.90987L2.79676 1.625Z"/>
<path d="M6.91225 6.06091C6.75622 6.44541 6.67596 6.8564 6.67596 7.27137C6.67596 7.69494 6.75958 8.11431 6.92203 8.50569C7.08448 8.89698 7.32259 9.25251 7.62276 9.55205C7.92293 9.85151 8.27929 10.0891 8.67148 10.2512C9.06368 10.4133 9.48403 10.4967 9.90856 10.4967C10.3244 10.4967 10.7363 10.4166 11.1217 10.261L6.91225 6.06091Z"/>
<path d="M6.22996 13.5859H7.94804C8.1589 13.5859 8.32984 13.7565 8.32984 13.9669C8.32984 14.1773 8.1589 14.3478 7.94804 14.3478H6.22996C6.01909 14.3478 5.84816 14.1773 5.84816 13.9669C5.84816 13.7565 6.01909 13.5859 6.22996 13.5859Z"/>
</svg>
