<svg width="132" height="63" viewBox="0 0 132 63" fill="none" xmlns="http://www.w3.org/2000/svg">
<path d="M118.554 33.5113L115.678 31.2637V52.2742L113.413 53.4247V54H121.107V53.4247L118.554 52.3821V41.38C119.01 40.9725 119.621 40.6609 120.388 40.4452C121.179 40.2295 121.898 40.1216 122.545 40.1216C123.6 40.1216 124.451 40.3973 125.098 40.9486C125.769 41.4999 126.105 42.3029 126.105 43.3575V52.3821L123.552 53.4247V54H131.246V53.4247L128.981 52.2742V41.6677C128.981 40.2774 128.526 39.2347 127.615 38.5396C126.728 37.8205 125.577 37.461 124.163 37.461C123.133 37.461 122.186 37.6767 121.323 38.1082C120.484 38.5396 119.609 39.2108 118.698 40.1216H118.554V33.5113Z" fill="#2C2C2C"/>
<path d="M21.4406 31.3632L22.6028 31.96C23.3938 32.3675 23.8972 32.775 24.1129 33.1824C24.3287 33.5659 24.4365 33.9614 24.4365 34.3689C24.4365 35.112 24.1009 35.7352 23.4298 36.2386C22.7826 36.7419 22.0635 37.0775 21.2725 37.2453V38.0003C22.471 37.7606 23.4538 37.3412 24.2208 36.7419C25.0118 36.1187 25.5871 35.4476 25.9466 34.7285C26.3301 33.9854 26.5219 33.3263 26.5219 32.751C26.5219 31.8162 26.2942 31.0252 25.8387 30.378C25.4847 29.8469 24.9773 29.3562 24.3165 28.9058L21.4406 31.3632Z" fill="#2C2C2C"/>
<path d="M67.5355 33.1105C66.9122 33.1105 66.3969 32.9068 65.9894 32.4993C65.5819 32.0678 65.3782 31.5525 65.3782 30.9533C65.3782 30.3301 65.5819 29.8147 65.9894 29.4072C66.3969 28.9997 66.9122 28.796 67.5355 28.796C68.1587 28.796 68.674 28.9997 69.0815 29.4072C69.489 29.8147 69.6927 30.3301 69.6927 30.9533C69.6927 31.5525 69.489 32.0678 69.0815 32.4993C68.674 32.9068 68.1587 33.1105 67.5355 33.1105Z" fill="#2C2C2C"/>
<path d="M63.94 53.4247V54H71.3466V53.4247L69.0815 52.2742V37.461H69.0752L65.2486 40.7308L66.2051 41.5598V52.2742L63.94 53.4247Z" fill="#2C2C2C"/>
<path fill-rule="evenodd" clip-rule="evenodd" d="M3.91902 54.3595C2.79245 54.3595 1.85764 54.036 1.11458 53.3888C0.371528 52.7176 0 51.7948 0 50.6203C0 49.4458 0.431452 48.4271 1.29436 47.5642C2.18123 46.7013 3.65536 46.0301 5.71674 45.5507L9.1324 44.7597V42.1351C9.1324 41.3201 8.79683 40.625 8.12568 40.0497C7.4785 39.4505 6.73545 39.1509 5.89651 39.1509C4.98567 39.1509 4.35048 39.4025 3.99093 39.9059C3.63139 40.3853 3.45162 41.0325 3.45162 41.8474V42.8542L3.27185 43.0339H1.40222C1.04268 43.0339 0.790995 42.974 0.647178 42.8542C0.52733 42.7343 0.467407 42.4587 0.467407 42.0272C0.467407 41.4999 0.623209 40.9606 0.934813 40.4093C1.24642 39.858 1.72581 39.3786 2.37299 38.9711C3.04413 38.5396 3.73925 38.1801 4.45834 37.8925C5.20139 37.6048 5.99239 37.461 6.83133 37.461C7.67026 37.461 8.48522 37.5808 9.27622 37.8205C10.0912 38.0602 10.7503 38.4677 11.2537 39.043C11.7571 39.5943 12.0088 40.3733 12.0088 41.38V51.5911C12.1765 51.7588 12.4162 51.9027 12.7278 52.0225C13.0394 52.1424 13.4709 52.2023 14.0222 52.2023H15.3885L15.4963 52.2742V52.3821C15.2087 52.9094 14.7772 53.3768 14.202 53.7843C13.6507 54.1678 12.9675 54.3595 12.1526 54.3595C11.4095 54.3595 10.7983 54.1678 10.3189 53.7843C9.86348 53.3768 9.53989 52.8495 9.34813 52.2023H9.1324C8.5092 52.8255 7.73018 53.3408 6.79537 53.7483C5.88453 54.1558 4.92575 54.3595 3.91902 54.3595ZM2.80444 49.9012C2.80444 51.3873 3.7033 52.1304 5.50101 52.1304C6.07628 52.1304 6.63957 52.0705 7.19087 51.9506C7.76614 51.8308 8.41332 51.615 9.1324 51.3034V45.9822C7.21484 46.3417 5.81262 46.7252 4.92575 47.1327C4.03887 47.5162 3.4636 47.9357 3.19994 48.3911C2.93627 48.8465 2.80444 49.3499 2.80444 49.9012Z" fill="#2C2C2C"/>
<path fill-rule="evenodd" clip-rule="evenodd" d="M32.7179 62.2695V61.6942L34.983 60.5437V41.5598L33.8335 40.5636L37.4643 37.461H37.4998L37.7875 39.6542H38.0391C38.95 38.8872 39.8249 38.3359 40.6638 38.0003C41.5027 37.6408 42.4136 37.461 43.3963 37.461C44.6188 37.461 45.6974 37.7726 46.6322 38.3958C47.567 39.019 48.2981 39.9059 48.8254 41.0564C49.3767 42.183 49.6524 43.5373 49.6524 45.1193C49.6524 47.0848 49.2809 48.7627 48.5378 50.1529C47.8187 51.5191 46.836 52.5618 45.5895 53.2809C44.3431 54 42.9769 54.3595 41.4907 54.3595C40.1485 54.3595 38.938 54.2397 37.8594 54V60.5437L40.4121 61.6942V62.2695H32.7179ZM41.4188 39.9418C40.8436 39.9418 40.2443 40.0377 39.6211 40.2295C39.0219 40.3973 38.4346 40.6609 37.8594 41.0205V51.1237C38.5784 51.6989 39.3095 52.0944 40.0526 52.3101C40.7956 52.5259 41.6226 52.6337 42.5334 52.6337C43.684 52.6337 44.6787 52.1543 45.5176 51.1956C46.3566 50.2128 46.776 48.5829 46.776 46.3058C46.776 44.8197 46.5363 43.6092 46.0569 42.6744C45.5776 41.7396 44.9304 41.0564 44.1154 40.625C43.3005 40.1696 42.4016 39.9418 41.4188 39.9418Z" fill="#2C2C2C"/>
<path d="M87.687 52.2382C89.0293 53.6524 90.863 54.3595 93.188 54.3595C94.6502 54.3595 95.9206 53.988 96.9992 53.245C98.1018 52.5019 98.9287 51.615 99.48 50.5843V50.2248H99.3722C97.5984 51.1836 96.0524 51.663 94.7341 51.663C93.1521 51.663 91.9057 51.3514 90.9948 50.7282C90.1079 50.081 89.4728 49.254 89.0892 48.2473C88.7057 47.2166 88.514 46.126 88.514 44.9755C88.514 43.1058 88.8855 41.6557 89.6286 40.625C90.3956 39.5703 91.4383 39.043 92.7566 39.043C93.5476 39.043 94.2067 39.1988 94.7341 39.5104C95.2854 39.798 95.7408 40.1815 96.1003 40.6609L97.3228 42.3148H97.5745L98.9407 41.1643C99.2523 40.9246 99.4081 40.637 99.4081 40.3014C99.4081 40.0377 99.2164 39.6782 98.8329 39.2228C98.3535 38.6954 97.6584 38.276 96.7475 37.9644C95.8367 37.6288 94.9019 37.461 93.9431 37.461C92.3851 37.461 90.9828 37.8565 89.7364 38.6475C88.49 39.4145 87.4953 40.4932 86.7522 41.8834C86.0331 43.2497 85.6736 44.8316 85.6736 46.6294C85.6736 48.9544 86.3447 50.824 87.687 52.2382Z" fill="#2C2C2C"/>
<path d="M53.0124 0L25 25L53.0124 2L75.3665 17L86 12.5L107 25L86.5714 9L75.3665 13.7255L53.0124 0Z" fill="#2C2C2C"/>
</svg>
