<svg width="668" height="309" viewBox="0 0 668 309" fill="none" xmlns="http://www.w3.org/2000/svg">
<path d="M277.709 182.443C265.462 182.443 253.972 180.175 243.237 175.64C232.653 170.953 223.355 164.527 215.342 156.363C207.48 148.047 201.281 138.371 196.745 127.334C192.361 116.296 190.168 104.352 190.168 91.5009C190.168 78.8007 192.361 67.0077 196.745 56.1218C201.281 45.0847 207.48 35.484 215.342 27.3196C223.355 19.004 232.653 12.5027 243.237 7.81573C253.82 3.12876 265.311 0.785278 277.709 0.785278C289.351 0.785278 299.329 2.2972 307.645 5.32105C316.112 8.3449 324.579 13.3343 333.045 20.2891C334.255 21.1963 335.162 22.179 335.767 23.2374C336.523 24.1445 336.976 25.1273 337.128 26.1856C337.43 27.0928 337.581 28.2267 337.581 29.5875C337.581 32.4601 336.523 34.8792 334.406 36.8447C332.441 38.8102 329.946 39.8686 326.922 40.0198C324.049 40.171 321.328 39.1882 318.758 37.0715C313.163 32.2333 307.343 28.5291 301.295 25.9589C295.398 23.3886 287.536 22.1034 277.709 22.1034C268.788 22.1034 260.397 23.9178 252.535 27.5464C244.673 31.175 237.718 36.1644 231.671 42.5144C225.774 48.8645 221.163 56.273 217.837 64.7398C214.51 73.0554 212.847 81.9757 212.847 91.5009C212.847 101.177 214.51 110.249 217.837 118.716C221.163 127.031 225.774 134.364 231.671 140.714C237.718 147.064 244.673 152.054 252.535 155.682C260.397 159.16 268.788 160.898 277.709 160.898C285.42 160.898 292.677 159.613 299.481 157.043C306.435 154.321 313.088 150.617 319.438 145.93C322.159 143.965 324.805 143.133 327.376 143.436C330.097 143.587 332.365 144.645 334.179 146.611C335.994 148.425 336.901 150.995 336.901 154.321C336.901 155.833 336.598 157.345 335.994 158.857C335.54 160.218 334.633 161.503 333.272 162.713C325.259 169.365 316.565 174.354 307.191 177.681C297.817 180.856 287.99 182.443 277.709 182.443ZM336.901 154.321L314.222 149.786V109.19H282.925C279.599 109.19 276.802 108.208 274.534 106.242C272.266 104.277 271.132 101.782 271.132 98.7581C271.132 95.7343 272.266 93.2396 274.534 91.2741C276.802 89.3086 279.599 88.3258 282.925 88.3258H325.334C328.812 88.3258 331.609 89.4598 333.726 91.7277C335.842 93.8444 336.901 96.6414 336.901 100.119V154.321Z" fill="#393939"/>
<path d="M422.705 180.175C419.379 180.175 416.582 179.041 414.314 176.774C412.046 174.506 410.912 171.709 410.912 168.382V14.8462C410.912 11.3688 412.046 8.5717 414.314 6.455C416.582 4.18711 419.379 3.05317 422.705 3.05317C426.182 3.05317 428.979 4.18711 431.096 6.455C433.364 8.5717 434.498 11.3688 434.498 14.8462V168.382C434.498 171.709 433.364 174.506 431.096 176.774C428.979 179.041 426.182 180.175 422.705 180.175Z" fill="#393939"/>
<path d="M527.869 180.175C524.543 180.175 521.746 179.041 519.478 176.774C517.21 174.506 516.076 171.709 516.076 168.382V14.8462C516.076 11.3688 517.21 8.5717 519.478 6.455C521.746 4.18711 524.543 3.05317 527.869 3.05317H568.918C581.921 3.05317 593.714 5.24546 604.297 9.63004C615.032 13.8634 624.33 19.9867 632.192 28C640.054 35.862 646.102 45.1603 650.336 55.895C654.569 66.6297 656.686 78.4983 656.686 91.5009C656.686 104.503 654.569 116.448 650.336 127.334C646.102 138.068 640.054 147.442 632.192 155.455C624.33 163.317 615.032 169.441 604.297 173.825C593.714 178.059 581.921 180.175 568.918 180.175H527.869ZM539.663 159.311H568.918C581.618 159.311 592.807 156.438 602.483 150.693C612.311 144.796 620.021 136.783 625.616 126.653C631.21 116.372 634.007 104.655 634.007 91.5009C634.007 78.1959 631.21 66.4785 625.616 56.3486C620.021 46.2187 612.311 38.2811 602.483 32.5357C592.807 26.7904 581.618 23.9178 568.918 23.9178H539.663V159.311Z" fill="#393939"/>
<path d="M25.2576 308.782C21.7948 308.782 18.5458 308.141 15.5106 306.858C12.5181 305.533 9.88895 303.716 7.6232 301.408C5.40019 299.056 3.64744 296.32 2.36494 293.2C1.12519 290.079 0.50531 286.702 0.50531 283.068C0.50531 279.477 1.12519 276.142 2.36494 273.064C3.64744 269.944 5.40019 267.229 7.6232 264.92C9.88895 262.569 12.5181 260.731 15.5106 259.406C18.5031 258.08 21.7521 257.418 25.2576 257.418C28.5494 257.418 31.3709 257.845 33.7221 258.7C36.1161 259.555 38.5101 260.966 40.9041 262.933C41.2461 263.189 41.5026 263.467 41.6736 263.766C41.8874 264.023 42.0156 264.301 42.0584 264.6C42.1439 264.856 42.1866 265.177 42.1866 265.562C42.1866 266.374 41.8874 267.058 41.2889 267.614C40.7331 268.127 40.0491 268.426 39.2369 268.511C38.4246 268.554 37.6337 268.276 36.8642 267.678C35.2825 266.31 33.6366 265.262 31.9266 264.536C30.2594 263.809 28.0364 263.446 25.2576 263.446C22.7353 263.446 20.3627 263.959 18.1397 264.985C15.9167 266.011 13.9502 267.421 12.2402 269.217C10.573 271.012 9.26907 273.107 8.32857 275.501C7.38807 277.852 6.91782 280.375 6.91782 283.068C6.91782 285.804 7.38807 288.369 8.32857 290.763C9.26907 293.114 10.573 295.188 12.2402 296.983C13.9502 298.779 15.9167 300.189 18.1397 301.215C20.3627 302.199 22.7353 302.69 25.2576 302.69C27.4379 302.69 29.4899 302.327 31.4136 301.6C33.3801 300.831 35.2611 299.783 37.0566 298.458C37.8261 297.902 38.5743 297.667 39.301 297.753C40.0705 297.795 40.7118 298.095 41.2248 298.65C41.7378 299.163 41.9943 299.89 41.9943 300.831C41.9943 301.258 41.9088 301.686 41.7378 302.113C41.5668 302.498 41.3103 302.861 40.9683 303.203C38.6597 305.041 36.1802 306.431 33.5297 307.371C30.922 308.312 28.1646 308.782 25.2576 308.782Z" fill="#393939"/>
<path d="M108.063 308.782C104.301 308.782 100.86 308.162 97.739 306.922C94.6183 305.64 91.925 303.866 89.6592 301.6C87.4362 299.292 85.7049 296.577 84.4651 293.456C83.2254 290.293 82.6055 286.83 82.6055 283.068C82.6055 279.306 83.2254 275.864 84.4651 272.744C85.7049 269.623 87.4362 266.93 89.6592 264.664C91.925 262.355 94.6183 260.581 97.739 259.342C100.86 258.059 104.301 257.418 108.063 257.418C111.825 257.418 115.245 258.059 118.323 259.342C121.444 260.581 124.137 262.355 126.403 264.664C128.669 266.93 130.421 269.623 131.661 272.744C132.901 275.864 133.521 279.306 133.521 283.068C133.521 286.83 132.901 290.293 131.661 293.456C130.421 296.577 128.669 299.292 126.403 301.6C124.137 303.866 121.444 305.64 118.323 306.922C115.245 308.162 111.825 308.782 108.063 308.782ZM108.063 302.754C110.842 302.754 113.386 302.263 115.694 301.279C118.045 300.253 120.076 298.864 121.786 297.111C123.496 295.316 124.8 293.221 125.698 290.827C126.638 288.433 127.108 285.847 127.108 283.068C127.108 280.289 126.638 277.703 125.698 275.309C124.8 272.915 123.496 270.841 121.786 269.089C120.076 267.293 118.045 265.904 115.694 264.92C113.386 263.937 110.842 263.446 108.063 263.446C105.284 263.446 102.719 263.937 100.368 264.92C98.0596 265.904 96.0504 267.293 94.3404 269.089C92.6731 270.841 91.3693 272.915 90.4287 275.309C89.4882 277.703 89.018 280.289 89.018 283.068C89.018 285.847 89.4882 288.433 90.4287 290.827C91.3693 293.221 92.6731 295.316 94.3404 297.111C96.0504 298.864 98.0596 300.253 100.368 301.279C102.719 302.263 105.284 302.754 108.063 302.754Z" fill="#393939"/>
<path d="M192.123 308.782C189.387 308.782 186.779 308.355 184.299 307.5C181.82 306.645 179.661 305.448 177.823 303.909C175.985 302.37 174.638 300.595 173.783 298.586C173.355 297.688 173.355 296.855 173.783 296.085C174.253 295.316 175.023 294.824 176.091 294.61C176.861 294.439 177.609 294.568 178.336 294.995C179.105 295.38 179.682 295.978 180.067 296.791C180.58 297.859 181.414 298.843 182.568 299.74C183.765 300.638 185.197 301.365 186.864 301.921C188.532 302.476 190.284 302.754 192.123 302.754C194.175 302.754 196.056 302.434 197.766 301.792C199.518 301.151 200.929 300.232 201.998 299.035C203.067 297.795 203.601 296.278 203.601 294.482C203.601 292.216 202.703 290.186 200.908 288.39C199.155 286.595 196.248 285.483 192.187 285.056C186.886 284.543 182.718 282.982 179.682 280.375C176.647 277.767 175.13 274.539 175.13 270.692C175.13 267.87 175.92 265.476 177.502 263.51C179.084 261.543 181.221 260.047 183.915 259.021C186.651 257.995 189.686 257.482 193.02 257.482C195.628 257.482 197.894 257.845 199.818 258.572C201.784 259.299 203.494 260.303 204.948 261.586C206.401 262.868 207.662 264.386 208.731 266.139C209.33 267.079 209.565 267.977 209.436 268.832C209.351 269.644 208.945 270.286 208.218 270.756C207.406 271.269 206.529 271.376 205.589 271.076C204.648 270.777 203.943 270.221 203.473 269.409C202.789 268.169 201.955 267.122 200.972 266.267C199.989 265.412 198.834 264.749 197.509 264.279C196.184 263.766 194.624 263.51 192.828 263.51C189.665 263.467 187.014 264.065 184.877 265.305C182.739 266.502 181.67 268.362 181.67 270.884C181.67 272.167 181.991 273.406 182.632 274.603C183.316 275.758 184.535 276.762 186.287 277.617C188.083 278.472 190.648 279.071 193.982 279.413C199.07 279.926 203.024 281.486 205.845 284.094C208.71 286.659 210.142 290.058 210.142 294.29C210.142 296.727 209.629 298.843 208.603 300.638C207.62 302.434 206.273 303.951 204.563 305.191C202.896 306.388 200.972 307.286 198.792 307.884C196.654 308.483 194.431 308.782 192.123 308.782Z" fill="#393939"/>
<path d="M255.956 308.141C255.015 308.141 254.224 307.82 253.583 307.179C252.942 306.538 252.621 305.747 252.621 304.806V261.394C252.621 260.41 252.942 259.619 253.583 259.021C254.224 258.38 255.015 258.059 255.956 258.059C257.238 258.059 258.221 258.658 258.905 259.855L278.977 300.061H276.925L296.483 259.855C297.167 258.658 298.15 258.059 299.433 258.059C300.373 258.059 301.164 258.38 301.805 259.021C302.446 259.619 302.767 260.41 302.767 261.394V304.806C302.767 305.747 302.425 306.538 301.741 307.179C301.1 307.82 300.33 308.141 299.433 308.141C298.492 308.141 297.701 307.82 297.06 307.179C296.419 306.538 296.098 305.747 296.098 304.806V270.628L297.381 270.307L280.58 304.55C279.853 305.661 278.891 306.217 277.694 306.217C276.283 306.217 275.257 305.554 274.616 304.229L258.008 270.948L259.29 270.628V304.806C259.29 305.747 258.97 306.538 258.328 307.179C257.687 307.82 256.896 308.141 255.956 308.141Z" fill="#393939"/>
<path d="M351.207 308.141C350.266 308.141 349.475 307.82 348.834 307.179C348.193 306.538 347.872 305.747 347.872 304.806V261.394C347.872 260.41 348.193 259.619 348.834 259.021C349.475 258.38 350.266 258.059 351.207 258.059H380.191C381.174 258.059 381.965 258.358 382.564 258.957C383.162 259.513 383.461 260.261 383.461 261.201C383.461 262.099 383.162 262.826 382.564 263.381C381.965 263.937 381.174 264.215 380.191 264.215H354.541V279.798H372.945C373.928 279.798 374.719 280.097 375.318 280.695C375.916 281.251 376.215 281.978 376.215 282.876C376.215 283.773 375.916 284.521 375.318 285.12C374.719 285.676 373.928 285.954 372.945 285.954H354.541V301.985H380.191C381.174 301.985 381.965 302.263 382.564 302.818C383.162 303.374 383.461 304.101 383.461 304.999C383.461 305.939 383.162 306.709 382.564 307.307C381.965 307.863 381.174 308.141 380.191 308.141H351.207Z" fill="#393939"/>
<path d="M439.838 308.141C438.897 308.141 438.107 307.82 437.465 307.179C436.824 306.538 436.503 305.747 436.503 304.806V258.059H443.172V304.806C443.172 305.747 442.852 306.538 442.211 307.179C441.569 307.82 440.778 308.141 439.838 308.141ZM422.652 264.215C421.755 264.215 421.007 263.937 420.408 263.381C419.852 262.783 419.574 262.035 419.574 261.137C419.574 260.239 419.852 259.513 420.408 258.957C421.007 258.358 421.755 258.059 422.652 258.059H456.959C457.857 258.059 458.584 258.358 459.14 258.957C459.738 259.513 460.037 260.239 460.037 261.137C460.037 262.035 459.738 262.783 459.14 263.381C458.584 263.937 457.857 264.215 456.959 264.215H422.652Z" fill="#393939"/>
<path d="M503.008 308.141C502.067 308.141 501.276 307.82 500.635 307.179C499.994 306.538 499.673 305.747 499.673 304.806V261.394C499.673 260.41 499.994 259.619 500.635 259.021C501.276 258.38 502.067 258.059 503.008 258.059C503.991 258.059 504.782 258.38 505.38 259.021C506.022 259.619 506.342 260.41 506.342 261.394V304.806C506.342 305.747 506.022 306.538 505.38 307.179C504.782 307.82 503.991 308.141 503.008 308.141Z" fill="#393939"/>
<path d="M573.845 308.782C570.383 308.782 567.134 308.141 564.098 306.858C561.106 305.533 558.477 303.716 556.211 301.408C553.988 299.056 552.235 296.32 550.953 293.2C549.713 290.079 549.093 286.702 549.093 283.068C549.093 279.477 549.713 276.142 550.953 273.064C552.235 269.944 553.988 267.229 556.211 264.92C558.477 262.569 561.106 260.731 564.098 259.406C567.091 258.08 570.34 257.418 573.845 257.418C577.137 257.418 579.959 257.845 582.31 258.7C584.704 259.555 587.098 260.966 589.492 262.933C589.834 263.189 590.09 263.467 590.261 263.766C590.475 264.023 590.603 264.301 590.646 264.6C590.732 264.856 590.774 265.177 590.774 265.562C590.774 266.374 590.475 267.058 589.877 267.614C589.321 268.127 588.637 268.426 587.825 268.511C587.012 268.554 586.222 268.276 585.452 267.678C583.87 266.31 582.224 265.262 580.514 264.536C578.847 263.809 576.624 263.446 573.845 263.446C571.323 263.446 568.95 263.959 566.727 264.985C564.504 266.011 562.538 267.421 560.828 269.217C559.161 271.012 557.857 273.107 556.916 275.501C555.976 277.852 555.506 280.375 555.506 283.068C555.506 285.804 555.976 288.369 556.916 290.763C557.857 293.114 559.161 295.188 560.828 296.983C562.538 298.779 564.504 300.189 566.727 301.215C568.95 302.199 571.323 302.69 573.845 302.69C576.026 302.69 578.078 302.327 580.001 301.6C581.968 300.831 583.849 299.783 585.644 298.458C586.414 297.902 587.162 297.667 587.889 297.753C588.658 297.795 589.299 298.095 589.812 298.65C590.325 299.163 590.582 299.89 590.582 300.831C590.582 301.258 590.497 301.686 590.326 302.113C590.154 302.498 589.898 302.861 589.556 303.203C587.248 305.041 584.768 306.431 582.117 307.371C579.51 308.312 576.752 308.782 573.845 308.782Z" fill="#393939"/>
<path d="M649.405 308.782C646.669 308.782 644.061 308.355 641.582 307.5C639.102 306.645 636.943 305.448 635.105 303.909C633.267 302.37 631.92 300.595 631.065 298.586C630.638 297.688 630.638 296.855 631.065 296.085C631.535 295.316 632.305 294.824 633.374 294.61C634.143 294.439 634.891 294.568 635.618 294.995C636.387 295.38 636.965 295.978 637.349 296.791C637.862 297.859 638.696 298.843 639.85 299.74C641.047 300.638 642.479 301.365 644.147 301.921C645.814 302.476 647.567 302.754 649.405 302.754C651.457 302.754 653.338 302.434 655.048 301.792C656.801 301.151 658.211 300.232 659.28 299.035C660.349 297.795 660.883 296.278 660.883 294.482C660.883 292.216 659.986 290.186 658.19 288.39C656.437 286.595 653.53 285.483 649.469 285.056C644.168 284.543 640 282.982 636.965 280.375C633.929 277.767 632.412 274.539 632.412 270.692C632.412 267.87 633.203 265.476 634.784 263.51C636.366 261.543 638.504 260.047 641.197 259.021C643.933 257.995 646.968 257.482 650.303 257.482C652.91 257.482 655.176 257.845 657.1 258.572C659.066 259.299 660.776 260.303 662.23 261.586C663.683 262.868 664.944 264.386 666.013 266.139C666.612 267.079 666.847 267.977 666.719 268.832C666.633 269.644 666.227 270.286 665.5 270.756C664.688 271.269 663.812 271.376 662.871 271.076C661.931 270.777 661.225 270.221 660.755 269.409C660.071 268.169 659.237 267.122 658.254 266.267C657.271 265.412 656.117 264.749 654.791 264.279C653.466 263.766 651.906 263.51 650.11 263.51C646.947 263.467 644.296 264.065 642.159 265.305C640.021 266.502 638.952 268.362 638.952 270.884C638.952 272.167 639.273 273.406 639.914 274.603C640.598 275.758 641.817 276.762 643.569 277.617C645.365 278.472 647.93 279.071 651.264 279.413C656.352 279.926 660.306 281.486 663.128 284.094C665.992 286.659 667.424 290.058 667.424 294.29C667.424 296.727 666.911 298.843 665.885 300.638C664.902 302.434 663.555 303.951 661.845 305.191C660.178 306.388 658.254 307.286 656.074 307.884C653.936 308.483 651.713 308.782 649.405 308.782Z" fill="#393939"/>
<path d="M11.8365 23.703C-2.05984 37.5993 -2.05984 60.1298 11.8365 74.0261L16.3028 78.4925C14.9895 80.7528 13.8255 83.1032 12.8207 85.5289C9.8669 92.6601 8.34658 100.303 8.34658 108.022C8.34658 115.741 9.8669 123.384 12.8207 130.515C15.7746 137.646 20.1041 144.126 25.5621 149.584C31.0201 155.042 37.4997 159.372 44.6309 162.325C51.7621 165.279 59.4053 166.8 67.1241 166.8C74.8429 166.8 82.486 165.279 89.6173 162.325C92.043 161.321 94.3933 160.157 96.6537 158.843L108.061 170.25C121.957 184.147 144.488 184.147 158.384 170.25L135.824 147.691C134.929 148.246 134.019 148.776 133.095 149.282C131.237 150.3 129.322 151.218 127.358 152.031C120.227 154.985 112.583 156.505 104.865 156.505C97.1459 156.505 89.5027 154.985 82.3715 152.031C75.2403 149.077 68.7607 144.748 63.3027 139.29C57.8447 133.832 53.5152 127.352 50.5613 120.221C47.6075 113.09 46.0872 105.447 46.0872 97.7279C46.0872 90.0092 47.6075 82.366 50.5613 75.2348C51.375 73.2705 52.293 71.3556 53.3102 69.4979C53.8164 68.5736 54.3471 67.6634 54.9018 66.7682L11.8365 23.703Z" fill="#393939"/>
<path d="M65.6709 81.8586C63.6299 86.8994 62.58 92.2876 62.58 97.7279C62.58 103.281 63.6738 108.779 65.7988 113.91C67.9238 119.04 71.0384 123.701 74.9649 127.628C78.8914 131.554 83.5528 134.669 88.683 136.794C93.8133 138.919 99.3118 140.013 104.865 140.013C110.305 140.013 115.693 138.963 120.734 136.922L65.6709 81.8586Z" fill="#393939"/>
<rect width="32.4624" height="9.98844" rx="4.99422" transform="matrix(-1 0 0 1 84.2141 180.513)" fill="#393939"/>
</svg>
